<?xml version="1.0" standalone="no"?>
<!DOCTYPE svg PUBLIC "-//W3C//DTD SVG 20010904//EN"
 "http://www.w3.org/TR/2001/REC-SVG-20010904/DTD/svg10.dtd">
<svg version="1.0" xmlns="http://www.w3.org/2000/svg"
 width="420.000000pt" height="420.000000pt" viewBox="0 0 420.000000 420.000000"
 preserveAspectRatio="xMidYMid meet">
<metadata>
Created by potrace 1.11, written by Peter Selinger 2001-2013
</metadata>
<g transform="translate(0.000000,420.000000) scale(0.100000,-0.100000)"
fill="#000000" stroke="none">
<path d="M50 4177 c-13 -7 -30 -24 -37 -37 -10 -20 -13 -344 -13 -1538 0
-1645 -3 -1554 55 -1580 19 -9 139 -12 435 -12 l409 0 338 -505 338 -504 83
-1 83 0 1229 823 1229 822 1 75 0 74 -370 553 -370 552 70 152 c41 89 70 165
70 184 0 45 -27 68 -140 119 -192 87 -1088 496 -1183 540 l-97 45 0 85 c0 96
-12 131 -51 152 -39 20 -2040 21 -2079 1z m2028 -89 c9 -9 12 -312 12 -1303 0
-1239 -1 -1292 -19 -1331 -10 -23 -24 -45 -30 -48 -6 -4 -11 -37 -11 -77 l0
-69 -935 0 -935 0 0 555 0 555 920 0 920 0 2 -547 3 -548 2 548 c3 485 5 547
19 547 21 0 44 60 44 115 0 50 -23 115 -40 115 -6 0 -3 -11 6 -25 24 -36 23
-149 -1 -175 -18 -20 -36 -20 -945 -20 -909 0 -927 0 -945 20 -24 26 -25 139
-1 174 14 23 16 89 16 641 l0 615 920 0 920 0 2 -617 3 -618 2 618 c3 548 5
617 19 617 21 0 44 60 44 115 0 50 -23 115 -40 115 -6 0 -3 -11 6 -25 24 -36
23 -149 -1 -175 -18 -20 -36 -20 -945 -20 -909 0 -927 0 -945 20 -24 26 -25
139 -1 175 9 14 12 25 6 25 -18 0 -40 -66 -40 -118 0 -28 8 -64 20 -87 19 -38
20 -59 20 -640 0 -581 -1 -602 -20 -640 -12 -24 -20 -59 -20 -90 0 -31 8 -66
20 -90 19 -38 20 -59 20 -518 0 -346 -3 -476 -11 -471 -6 3 -20 25 -30 48 -18
39 -19 92 -19 1332 0 990 3 1293 12 1302 17 17 1959 17 1976 0z m321 -349 c21
-8 379 -172 960 -438 68 -31 129 -63 134 -72 8 -12 -13 -66 -83 -220 -156
-344 -404 -887 -560 -1229 -82 -179 -207 -453 -278 -610 -132 -290 -168 -350
-221 -368 l-30 -11 23 52 c13 29 60 133 106 232 45 99 125 275 178 392 77 168
102 213 119 218 31 7 62 42 84 93 21 48 25 87 9 97 -5 3 -10 0 -10 -7 0 -7 -7
-3 -14 8 -8 12 -70 45 -137 75 -66 30 -205 93 -308 140 l-186 85 -3 683 c-2
546 0 682 10 678 7 -3 207 -94 443 -202 237 -108 485 -222 553 -252 67 -31
122 -61 122 -67 0 -6 -31 -78 -69 -161 -280 -615 -431 -948 -431 -951 0 -2 4
-4 8 -4 5 0 20 26 35 58 128 278 367 803 415 911 50 111 64 136 88 146 16 7
38 22 48 34 24 27 56 120 48 140 -5 12 -8 10 -12 -9 -6 -25 -6 -24 -13 6 -5
29 -17 36 -199 118 -106 48 -220 100 -253 116 -82 38 -733 334 -767 348 -22 9
-28 18 -28 41 l0 30 98 -45 c53 -25 108 -50 121 -55z m-143 -8 c38 -16 211
-94 384 -174 173 -79 338 -155 365 -167 269 -121 401 -184 407 -193 9 -15 -18
-98 -41 -120 -22 -22 49 -52 -891 377 l-295 135 -3 85 c-1 47 -1 86 1 86 2 0
35 -13 73 -29z m-16 -186 c14 -8 21 -14 15 -14 -5 0 -21 6 -35 14 -14 8 -20
14 -15 14 6 0 21 -6 35 -14z m120 -55 c19 -11 31 -19 25 -19 -5 0 -26 8 -45
19 -19 11 -30 19 -25 19 6 0 26 -8 45 -19z m130 -60 c19 -11 31 -19 25 -19 -5
0 -26 8 -45 19 -19 11 -30 19 -25 19 6 0 26 -8 45 -19z m135 -61 c15 -14 -7
-10 -35 7 l-25 15 25 -7 c14 -3 29 -10 35 -15z m213 -96 c56 -26 100 -48 98
-50 -4 -4 -227 94 -236 104 -8 9 24 -4 138 -54z m202 -93 c19 -11 31 -19 25
-19 -5 0 -26 8 -45 19 -19 11 -30 19 -25 19 6 0 26 -8 45 -19z m130 -60 c19
-11 31 -19 25 -19 -5 0 -26 8 -45 19 -19 11 -30 19 -25 19 6 0 26 -8 45 -19z
m253 -5 c-3 -9 -8 -14 -10 -11 -3 3 -2 9 2 15 9 16 15 13 8 -4z m-122 -54 c32
-15 48 -17 63 -10 20 10 20 10 2 -5 -16 -13 -23 -13 -52 -1 -40 16 -72 34 -63
35 4 0 26 -9 50 -19z m469 -789 c241 -361 345 -525 345 -544 0 -25 -73 -76
-853 -599 -470 -314 -855 -569 -857 -567 -2 2 5 22 15 45 15 34 38 54 127 114
87 59 117 74 153 76 61 5 133 52 159 105 17 36 73 76 515 373 446 299 500 333
545 338 60 7 122 45 146 90 l17 33 -341 510 c-245 365 -340 514 -336 527 4 9
10 17 14 17 3 0 161 -233 351 -518z m-55 -39 c294 -437 325 -489 315 -508 -18
-33 -98 -79 -117 -67 -11 8 -596 881 -601 897 -3 11 65 165 73 165 2 0 151
-219 330 -487z m-136 -163 c155 -231 279 -425 276 -430 -5 -8 -949 -642 -1001
-673 -7 -4 -42 40 -88 109 l-77 115 80 177 c44 97 134 296 201 442 66 146 165
360 218 477 53 116 99 210 103 207 4 -2 133 -193 288 -424z m-1169 -13 c113
-51 249 -113 303 -137 109 -49 114 -58 78 -129 -36 -70 -23 -73 -312 60 -145
66 -272 123 -281 126 -15 5 -18 18 -18 95 0 68 3 89 13 85 6 -3 104 -48 217
-100z m20 -230 c102 -46 206 -94 233 -105 26 -12 47 -25 47 -31 0 -5 -52 -123
-116 -263 -63 -139 -144 -316 -179 -393 -35 -77 -84 -184 -109 -237 -45 -97
-51 -138 -8 -55 13 23 20 31 16 17 -3 -14 -14 -37 -23 -51 l-16 -27 -300 138
c-165 76 -325 149 -355 163 l-55 25 268 1 c291 1 312 5 335 56 9 19 12 143 12
451 l0 424 33 -14 c17 -7 115 -52 217 -99z m-155 99 c19 -8 35 -18 35 -21 0
-5 -70 21 -79 30 -8 9 10 5 44 -9z m140 -67 c15 -14 -7 -10 -35 7 l-25 15 25
-7 c14 -3 29 -10 35 -15z m45 -19 c8 -5 11 -10 5 -10 -5 0 -17 5 -25 10 -8 5
-10 10 -5 10 6 0 17 -5 25 -10z m127 -60 c15 -9 14 -10 -7 -4 -30 8 -80 33
-80 39 0 6 62 -19 87 -35z m228 0 c-4 -12 -9 -19 -12 -17 -3 3 -2 15 2 27 4
12 9 19 12 17 3 -3 2 -15 -2 -27z m-125 -45 c14 -8 21 -14 15 -14 -5 0 -21 6
-35 14 -14 8 -20 14 -15 14 6 0 21 -6 35 -14z m85 -14 c-3 -6 -18 -10 -33 -10
-21 1 -22 2 -7 6 11 3 24 9 29 14 12 11 20 4 11 -10z m-18 -681 c78 -116 79
-127 20 -167 -65 -43 -71 -41 -126 41 -28 41 -51 80 -51 86 0 25 71 163 79
154 5 -5 40 -56 78 -114z m-143 -146 c21 -30 36 -60 34 -65 -4 -11 -180 -130
-185 -125 -2 2 17 48 43 102 25 55 50 109 55 122 5 12 10 22 12 22 2 0 21 -25
41 -56z m-927 -223 c180 -82 352 -160 381 -174 l53 -25 -48 -34 c-82 -60 -325
-220 -328 -216 -4 5 -381 572 -389 586 -4 6 -5 12 -2 12 3 0 153 -67 333 -149z
m501 -235 c23 -12 19 -15 -93 -89 -112 -74 -157 -92 -205 -85 -18 2 6 23 116
95 76 51 144 93 149 93 6 -1 20 -7 33 -14z"/>
<path d="M150 4021 c-13 -25 -13 -117 0 -142 10 -19 31 -19 940 -19 909 0 930
0 940 19 13 25 13 117 0 142 -10 19 -31 19 -940 19 -909 0 -930 0 -940 -19z
m1870 -10 c13 -25 13 -97 0 -122 -10 -19 -31 -19 -930 -19 -899 0 -920 0 -930
19 -5 11 -10 38 -10 61 0 23 5 50 10 61 10 19 31 19 930 19 899 0 920 0 930
-19z"/>
<path d="M150 2561 c-13 -25 -13 -117 0 -142 10 -19 31 -19 940 -19 909 0 930
0 940 19 13 25 13 117 0 142 -10 19 -31 19 -940 19 -909 0 -930 0 -940 -19z
m1870 -10 c13 -25 13 -97 0 -122 -10 -19 -31 -19 -930 -19 -899 0 -920 0 -930
19 -5 11 -10 38 -10 61 0 23 5 50 10 61 10 19 31 19 930 19 899 0 920 0 930
-19z"/>
</g>
</svg>
